<svg width="440" height="440" viewBox="0 0 440 440" fill="none" xmlns="http://www.w3.org/2000/svg">
<circle cx="220" cy="220" r="220" fill="black"/>
<path d="M108.696 292V150.182H146.828V174.926H148.305C150.891 166.124 155.23 159.476 161.324 154.983C167.418 150.428 174.435 148.151 182.375 148.151C184.345 148.151 186.468 148.274 188.746 148.52C191.023 148.766 193.024 149.105 194.747 149.536V184.436C192.901 183.882 190.346 183.39 187.084 182.959C183.821 182.528 180.836 182.312 178.128 182.312C172.342 182.312 167.171 183.574 162.616 186.098C158.123 188.56 154.553 192.007 151.906 196.439C149.321 200.871 148.028 205.98 148.028 211.766V292H108.696ZM333.08 190.622L297.071 192.838C296.456 189.76 295.132 186.991 293.101 184.528C291.07 182.005 288.392 180.004 285.069 178.527C281.806 176.988 277.898 176.219 273.343 176.219C267.249 176.219 262.109 177.511 257.924 180.097C253.738 182.62 251.645 186.006 251.645 190.253C251.645 193.638 252.999 196.5 255.708 198.839C258.416 201.179 263.063 203.056 269.65 204.472L295.317 209.642C309.105 212.473 319.384 217.028 326.155 223.307C332.926 229.585 336.311 237.833 336.311 248.051C336.311 257.346 333.572 265.501 328.094 272.518C322.677 279.536 315.23 285.014 305.75 288.953C296.333 292.831 285.469 294.77 273.158 294.77C254.384 294.77 239.427 290.861 228.286 283.044C217.206 275.165 210.712 264.455 208.804 250.913L247.49 248.882C248.66 254.607 251.491 258.977 255.985 261.993C260.478 264.947 266.233 266.425 273.25 266.425C280.144 266.425 285.684 265.101 289.87 262.455C294.117 259.746 296.271 256.268 296.333 252.021C296.271 248.451 294.763 245.527 291.809 243.25C288.854 240.911 284.299 239.126 278.144 237.895L253.584 233.001C239.735 230.232 229.425 225.43 222.654 218.598C215.944 211.766 212.59 203.056 212.59 192.469C212.59 183.359 215.052 175.511 219.976 168.925C224.962 162.339 231.948 157.26 240.935 153.69C249.983 150.12 260.57 148.335 272.696 148.335C290.608 148.335 304.704 152.121 314.983 159.692C325.324 167.263 331.356 177.573 333.08 190.622Z" fill="white"/>
</svg>
